<svg xmlns="http://www.w3.org/2000/svg" width="1200" height="850" viewBox="0 0 1200 850" font-family="Inter, 'DejaVu Sans', Arial, sans-serif">
<rect width="1200" height="850" fill="#fffdf7"/>
<text x="600.0" y="40.0" font-size="26" font-weight="800" fill="#1e2a4a" text-anchor="middle" >Boards Manager: pilih "esp32" by Espressif Systems</text>
<text x="600.0" y="72.0" font-size="16" font-weight="400" fill="#4a5568" text-anchor="middle" >Ada dua entri yang mirip. Yang kita perlukan adalah entri kedua.</text>
<rect x="44.0" y="92.0" width="1120.0" height="640.0" rx="8" fill="#000000" opacity="0.10"/>
<rect x="40.0" y="86.0" width="1120.0" height="640.0" rx="6" fill="#ffffff" stroke="#b9c0c2" stroke-width="1.2" />
<rect x="40.0" y="86.0" width="1120.0" height="34.0" rx="6" fill="#ffffff" />
<rect x="52.0" y="95.0" width="16.0" height="16.0" rx="4" fill="#005c5f" />
<text x="60.0" y="107.0" font-size="13" font-weight="700" fill="#ffffff" text-anchor="middle" >∞</text>
<text x="78.0" y="108.0" font-size="13.5" font-weight="400" fill="#333333" text-anchor="start" font-family="'Open Sans', 'Segoe UI', Arial, sans-serif" >sketch_oct10a | Arduino IDE 2.3.10</text>
<text x="1048.0" y="108.0" font-size="13" font-weight="400" fill="#333333" text-anchor="middle" font-family="'Open Sans', 'Segoe UI', Arial, sans-serif" >—</text>
<text x="1088.0" y="108.0" font-size="13" font-weight="400" fill="#333333" text-anchor="middle" font-family="'Open Sans', 'Segoe UI', Arial, sans-serif" >☐</text>
<text x="1128.0" y="108.0" font-size="13" font-weight="400" fill="#333333" text-anchor="middle" font-family="'Open Sans', 'Segoe UI', Arial, sans-serif" >✕</text>
<rect x="40.0" y="120.0" width="1120.0" height="28.0" rx="0" fill="#292a2d" />
<text x="54.0" y="139.0" font-size="13.5" font-weight="400" fill="#d6d6d6" text-anchor="start" font-family="'Open Sans', 'Segoe UI', Arial, sans-serif" >File</text>
<text x="96.0" y="139.0" font-size="13.5" font-weight="400" fill="#d6d6d6" text-anchor="start" font-family="'Open Sans', 'Segoe UI', Arial, sans-serif" >Edit</text>
<text x="138.0" y="139.0" font-size="13.5" font-weight="400" fill="#d6d6d6" text-anchor="start" font-family="'Open Sans', 'Segoe UI', Arial, sans-serif" >Sketch</text>
<text x="194.0" y="139.0" font-size="13.5" font-weight="400" fill="#d6d6d6" text-anchor="start" font-family="'Open Sans', 'Segoe UI', Arial, sans-serif" >Tools</text>
<text x="243.0" y="139.0" font-size="13.5" font-weight="400" fill="#d6d6d6" text-anchor="start" font-family="'Open Sans', 'Segoe UI', Arial, sans-serif" >Help</text>
<rect x="40.0" y="148.0" width="1120.0" height="56.0" rx="0" fill="#005c5f" />
<circle cx="74.0" cy="176.0" r="17" fill="#7ec9d0" />
<path d="M67 176 L72 181 L81 171" fill="none" stroke="#ffffff" stroke-width="2.6" stroke-linecap="round" stroke-linejoin="round" />
<circle cx="116.0" cy="176.0" r="17" fill="#7ec9d0" />
<path d="M109 176 L123 176 M118 171 L123 176 L118 181" fill="none" stroke="#ffffff" stroke-width="2.6" stroke-linecap="round" stroke-linejoin="round" />
<circle cx="158.0" cy="176.0" r="17" fill="#2f7e82" />
<path d="M155 169 L165 176 L155 183 Z" fill="none" stroke="#9fd3d6" stroke-width="2" stroke-linecap="round" stroke-linejoin="round" />
<circle cx="153.0" cy="180.0" r="3.5" fill="none" stroke="#9fd3d6" stroke-width="1.8" />
<rect x="188.0" y="159.0" width="300.0" height="34.0" rx="3" fill="#ffffff" />
<text x="204.0" y="181.0" font-size="14.5" font-weight="700" fill="#4e5b61" text-anchor="start" font-family="'Open Sans', 'Segoe UI', Arial, sans-serif" >Select Board</text>
<path d="M464 172 L470 179 L476 172" fill="none" stroke="#4e5b61" stroke-width="2" stroke-linecap="round" stroke-linejoin="round" />
<path d="M1085 178 L1090 178 L1093 169 L1096 184 L1099 176 L1103 176" fill="none" stroke="#ffffff" stroke-width="2" stroke-linecap="round" stroke-linejoin="round" />
<circle cx="1127.0" cy="176.0" r="6.5" fill="none" stroke="#ffffff" stroke-width="2" />
<circle cx="1127.0" cy="176.0" r="1.6" fill="#ffffff" />
<line x1="1118.0" y1="176.0" x2="1120.5" y2="176.0" stroke="#ffffff" stroke-width="2" stroke-linecap="round" />
<circle cx="1137.0" cy="176.0" r="1.4" fill="#ffffff" />
<circle cx="1141.0" cy="176.0" r="1.4" fill="#ffffff" />
<rect x="40.0" y="204.0" width="54.0" height="496.0" rx="0" fill="#ececec" />
<path d="M56 229 L63 229 L66 232 L78 232 L78 244 L56 244 Z" fill="none" stroke="#8a9799" stroke-width="1.8" stroke-linecap="round" stroke-linejoin="round" />
<rect x="56.0" y="280.0" width="22.0" height="15.0" rx="2" fill="none" stroke="#005c5f" stroke-width="1.8" />
<line x1="53.0" y1="284.0" x2="56.0" y2="284.0" stroke="#005c5f" stroke-width="1.8" stroke-linecap="round" />
<line x1="53.0" y1="290.0" x2="56.0" y2="290.0" stroke="#005c5f" stroke-width="1.8" stroke-linecap="round" />
<line x1="62.0" y1="289.0" x2="73.0" y2="289.0" stroke="#005c5f" stroke-width="1.8" stroke-linecap="round" />
<rect x="56.0" y="331.0" width="5.0" height="18.0" rx="1" fill="none" stroke="#8a9799" stroke-width="1.6" />
<rect x="63.0" y="331.0" width="5.0" height="18.0" rx="1" fill="none" stroke="#8a9799" stroke-width="1.6" />
<rect x="70.0" y="333.0" width="5.0" height="16.0" rx="1" fill="none" stroke="#8a9799" stroke-width="1.6" />
<path d="M63 383 L76 392 L63 401" fill="none" stroke="#8a9799" stroke-width="1.8" stroke-linecap="round" stroke-linejoin="round" />
<circle cx="61.0" cy="397.0" r="4" fill="none" stroke="#8a9799" stroke-width="1.6" />
<circle cx="65.0" cy="442.0" r="7" fill="none" stroke="#8a9799" stroke-width="1.8" />
<line x1="70.0" y1="447.0" x2="76.0" y2="453.0" stroke="#8a9799" stroke-width="2" stroke-linecap="round" />
<rect x="40.0" y="700.0" width="1120.0" height="26.0" rx="0" fill="#005c5f" />
<text x="1096.0" y="718.0" font-size="13" font-weight="400" fill="#ffffff" text-anchor="end" font-family="'Open Sans', 'Segoe UI', Arial, sans-serif" xml:space="preserve">Ln 1, Col 1    UTF-8    No board selected</text>
<path d="M1111 716 L1111 711 Q1111 706 1116 706 Q1121 706 1121 711 L1121 716 Z" fill="none" stroke="#ffffff" stroke-width="1.4" stroke-linecap="round" stroke-linejoin="round" />
<circle cx="1116.0" cy="718.5" r="1.4" fill="#ffffff" />
<rect x="1134.0" y="707.0" width="14.0" height="11.0" rx="1" fill="none" stroke="#ffffff" stroke-width="1.4" />
<rect x="454.0" y="204.0" width="706.0" height="36.0" rx="0" fill="#f7f9fa" />
<rect x="454.0" y="204.0" width="190.0" height="36.0" rx="0" fill="#ffffff" />
<text x="468.0" y="227.0" font-size="13.5" font-weight="400" fill="#333333" text-anchor="start" font-family="'Open Sans', 'Segoe UI', Arial, sans-serif" >sketch_oct10a.ino</text>
<text x="1138.0" y="226.0" font-size="14" font-weight="700" fill="#777" text-anchor="end" >···</text>
<text x="498.0" y="262.0" font-size="14" font-weight="400" fill="#30858d" text-anchor="end" font-family="'DejaVu Sans Mono', Consolas, monospace" >1</text>
<text x="524.0" y="262.0" font-family="'DejaVu Sans Mono', Consolas, monospace" font-size="14.5" xml:space="preserve"><tspan fill="#00979d">void</tspan><tspan fill="#4e5b61"> </tspan><tspan fill="#d35400">setup</tspan><tspan fill="#4e5b61">(</tspan><tspan fill="#4e5b61">)</tspan><tspan fill="#4e5b61"> </tspan><tspan fill="#4e5b61">{</tspan></text>
<text x="498.0" y="284.0" font-size="14" font-weight="400" fill="#30858d" text-anchor="end" font-family="'DejaVu Sans Mono', Consolas, monospace" >2</text>
<text x="524.0" y="284.0" font-family="'DejaVu Sans Mono', Consolas, monospace" font-size="14.5" xml:space="preserve"><tspan fill="#4e5b61">  </tspan><tspan fill="#95a5a6">// put your setup code here, to run once:</tspan></text>
<text x="498.0" y="306.0" font-size="14" font-weight="400" fill="#30858d" text-anchor="end" font-family="'DejaVu Sans Mono', Consolas, monospace" >3</text>
<text x="498.0" y="328.0" font-size="14" font-weight="400" fill="#30858d" text-anchor="end" font-family="'DejaVu Sans Mono', Consolas, monospace" >4</text>
<text x="524.0" y="328.0" font-family="'DejaVu Sans Mono', Consolas, monospace" font-size="14.5" xml:space="preserve"><tspan fill="#4e5b61">}</tspan></text>
<text x="498.0" y="350.0" font-size="14" font-weight="400" fill="#30858d" text-anchor="end" font-family="'DejaVu Sans Mono', Consolas, monospace" >5</text>
<text x="498.0" y="372.0" font-size="14" font-weight="400" fill="#30858d" text-anchor="end" font-family="'DejaVu Sans Mono', Consolas, monospace" >6</text>
<text x="524.0" y="372.0" font-family="'DejaVu Sans Mono', Consolas, monospace" font-size="14.5" xml:space="preserve"><tspan fill="#00979d">void</tspan><tspan fill="#4e5b61"> </tspan><tspan fill="#d35400">loop</tspan><tspan fill="#4e5b61">(</tspan><tspan fill="#4e5b61">)</tspan><tspan fill="#4e5b61"> </tspan><tspan fill="#4e5b61">{</tspan></text>
<text x="498.0" y="394.0" font-size="14" font-weight="400" fill="#30858d" text-anchor="end" font-family="'DejaVu Sans Mono', Consolas, monospace" >7</text>
<text x="524.0" y="394.0" font-family="'DejaVu Sans Mono', Consolas, monospace" font-size="14.5" xml:space="preserve"><tspan fill="#4e5b61">  </tspan><tspan fill="#95a5a6">// put your main code here, to run repeatedly:</tspan></text>
<text x="498.0" y="416.0" font-size="14" font-weight="400" fill="#30858d" text-anchor="end" font-family="'DejaVu Sans Mono', Consolas, monospace" >8</text>
<text x="498.0" y="438.0" font-size="14" font-weight="400" fill="#30858d" text-anchor="end" font-family="'DejaVu Sans Mono', Consolas, monospace" >9</text>
<text x="524.0" y="438.0" font-family="'DejaVu Sans Mono', Consolas, monospace" font-size="14.5" xml:space="preserve"><tspan fill="#4e5b61">}</tspan></text>
<line x1="512.0" y1="244.0" x2="512.0" y2="696.0" stroke="#e6e6e6" stroke-width="1" stroke-linecap="round" />
<rect x="94.0" y="204.0" width="360.0" height="496.0" rx="0" fill="#ffffff" />
<line x1="454.0" y1="204.0" x2="454.0" y2="700.0" stroke="#dddddd" stroke-width="1.2" stroke-linecap="round" />
<text x="110.0" y="230.0" font-size="12.5" font-weight="700" fill="#555" text-anchor="start" font-family="'Open Sans', 'Segoe UI', Arial, sans-serif" >BOARDS MANAGER</text>
<rect x="108.0" y="244.0" width="332.0" height="32.0" rx="3" fill="#ffffff" stroke="#c8c8c8" stroke-width="1.2" />
<text x="118.0" y="265.0" font-size="14" font-weight="400" fill="#333" text-anchor="start" font-family="'Open Sans', 'Segoe UI', Arial, sans-serif" >esp32</text>
<text x="108.0" y="302.0" font-size="13" font-weight="400" fill="#555" text-anchor="start" font-family="'Open Sans', 'Segoe UI', Arial, sans-serif" >Type:</text>
<rect x="152.0" y="286.0" width="110.0" height="26.0" rx="3" fill="#ffffff" stroke="#c8c8c8" stroke-width="1.2" />
<text x="162.0" y="304.0" font-size="13" font-weight="400" fill="#333" text-anchor="start" font-family="'Open Sans', 'Segoe UI', Arial, sans-serif" >All</text>
<path d="M244 296 L249 302 L254 296" fill="none" stroke="#555" stroke-width="1.6" stroke-linecap="round" stroke-linejoin="round" />
<text x="110.0" y="350.0" font-size="1" font-weight="400" fill="#1e2a4a" text-anchor="start" ></text>
<text x="110" y="350" font-family="'Open Sans', 'Segoe UI', Arial, sans-serif" font-size="15" fill="#333"><tspan font-weight="700">Arduino ESP32 Boards</tspan><tspan> by Arduino</tspan></text>
<text x="110.0" y="372.0" font-size="13" font-weight="400" fill="#555" text-anchor="start" font-family="'Open Sans', 'Segoe UI', Arial, sans-serif" >Boards included in this package:</text>
<text x="110.0" y="391.0" font-size="13" font-weight="400" fill="#555" text-anchor="start" font-family="'Open Sans', 'Segoe UI', Arial, sans-serif" >Arduino Nano ESP32</text>
<text x="110.0" y="412.0" font-size="13" font-weight="400" fill="#00979d" text-anchor="start" font-family="'Open Sans', 'Segoe UI', Arial, sans-serif" >More info</text>
<rect x="110.0" y="426.0" width="161.6" height="30.0" rx="3" fill="#ffffff" stroke="#c8c8c8" stroke-width="1.2" />
<text x="120.0" y="446.0" font-size="13" font-weight="400" fill="#333" text-anchor="start" font-family="'Open Sans', 'Segoe UI', Arial, sans-serif" >2.0.18-arduino.5</text>
<path d="M253.6 437 L258.6 443 L263.6 437" fill="none" stroke="#555" stroke-width="1.6" stroke-linecap="round" stroke-linejoin="round" />
<rect x="287.6" y="426.0" width="100.0" height="30.0" rx="15" fill="#00979d" />
<text x="337.6" y="446.0" font-size="13" font-weight="700" fill="#ffffff" text-anchor="middle" font-family="'Open Sans', 'Segoe UI', Arial, sans-serif" >INSTALL</text>
<line x1="106.0" y1="464.0" x2="442.0" y2="464.0" stroke="#e3e3e3" stroke-width="1" stroke-linecap="round" />
<text x="110.0" y="492.0" font-size="1" font-weight="400" fill="#1e2a4a" text-anchor="start" ></text>
<text x="110" y="492" font-family="'Open Sans', 'Segoe UI', Arial, sans-serif" font-size="15" fill="#333"><tspan font-weight="700">esp32</tspan><tspan> by Espressif Systems</tspan></text>
<text x="110.0" y="514.0" font-size="13" font-weight="400" fill="#555" text-anchor="start" font-family="'Open Sans', 'Segoe UI', Arial, sans-serif" >Boards included in this package:</text>
<text x="110.0" y="533.0" font-size="13" font-weight="400" fill="#555" text-anchor="start" font-family="'Open Sans', 'Segoe UI', Arial, sans-serif" >ESP32 Dev Board, ESP32-C3 Dev Board,</text>
<text x="110.0" y="552.0" font-size="13" font-weight="400" fill="#555" text-anchor="start" font-family="'Open Sans', 'Segoe UI', Arial, sans-serif" >ESP32-C5 Dev Board, …</text>
<text x="110.0" y="573.0" font-size="13" font-weight="400" fill="#00979d" text-anchor="start" font-family="'Open Sans', 'Segoe UI', Arial, sans-serif" >More info</text>
<rect x="110.0" y="587.0" width="110.0" height="30.0" rx="3" fill="#ffffff" stroke="#c8c8c8" stroke-width="1.2" />
<text x="120.0" y="607.0" font-size="13" font-weight="400" fill="#333" text-anchor="start" font-family="'Open Sans', 'Segoe UI', Arial, sans-serif" >3.3.12</text>
<path d="M202 598 L207 604 L212 598" fill="none" stroke="#555" stroke-width="1.6" stroke-linecap="round" stroke-linejoin="round" />
<rect x="236.0" y="587.0" width="100.0" height="30.0" rx="15" fill="#00979d" />
<text x="286.0" y="607.0" font-size="13" font-weight="700" fill="#ffffff" text-anchor="middle" font-family="'Open Sans', 'Segoe UI', Arial, sans-serif" >INSTALL</text>
<line x1="106.0" y1="625.0" x2="442.0" y2="625.0" stroke="#e3e3e3" stroke-width="1" stroke-linecap="round" />
<rect x="100.0" y="328.0" width="348.0" height="134.0" rx="6" fill="#ffffff" opacity="0.55"/>
<rect x="302.0" y="390.0" width="138.0" height="24.0" rx="6" fill="#fbe3e5" stroke="#e63946" stroke-width="1.5" />
<text x="371.0" y="407.0" font-size="12.5" font-weight="800" fill="#e63946" text-anchor="middle" >✗ bukan yang ini</text>
<rect x="96.0" y="466.0" width="356.0" height="161.0" rx="8" fill="none" stroke="#e63946" stroke-width="3.5" />
<rect x="47.0" y="271.0" width="40.0" height="34.0" rx="6" fill="none" stroke="#e63946" stroke-width="3" />
<circle cx="23.0" cy="288.0" r="15" fill="#e63946" stroke="#ffffff" stroke-width="2.5" />
<text x="23.0" y="293.5" font-size="16" font-weight="800" fill="#ffffff" text-anchor="middle" >1</text>
<circle cx="424.0" cy="260.0" r="15" fill="#e63946" stroke="#ffffff" stroke-width="2.5" />
<text x="424.0" y="265.5" font-size="16" font-weight="800" fill="#ffffff" text-anchor="middle" >2</text>
<circle cx="474.0" cy="488.0" r="15" fill="#e63946" stroke="#ffffff" stroke-width="2.5" />
<text x="474.0" y="493.5" font-size="16" font-weight="800" fill="#ffffff" text-anchor="middle" >3</text>
<circle cx="362.0" cy="602.0" r="15" fill="#e63946" stroke="#ffffff" stroke-width="2.5" />
<text x="362.0" y="607.5" font-size="16" font-weight="800" fill="#ffffff" text-anchor="middle" >4</text>
<circle cx="54.0" cy="758.0" r="12" fill="#e63946" stroke="#ffffff" stroke-width="2.5" />
<text x="54.0" y="763.5" font-size="16" font-weight="800" fill="#ffffff" text-anchor="middle" >1</text>
<text x="74.0" y="763.0" font-size="15" font-weight="400" fill="#1e2a4a" text-anchor="start" >Klik ikon Boards Manager di bilah kiri</text>
<circle cx="614.0" cy="758.0" r="12" fill="#e63946" stroke="#ffffff" stroke-width="2.5" />
<text x="614.0" y="763.5" font-size="16" font-weight="800" fill="#ffffff" text-anchor="middle" >2</text>
<text x="634.0" y="763.0" font-size="15" font-weight="400" fill="#1e2a4a" text-anchor="start" >Ketik esp32 di kotak pencarian</text>
<circle cx="54.0" cy="788.0" r="12" fill="#e63946" stroke="#ffffff" stroke-width="2.5" />
<text x="54.0" y="793.5" font-size="16" font-weight="800" fill="#ffffff" text-anchor="middle" >3</text>
<text x="74.0" y="793.0" font-size="15" font-weight="400" fill="#1e2a4a" text-anchor="start" >"esp32" by Espressif Systems, versi 3.3.12</text>
<circle cx="614.0" cy="788.0" r="12" fill="#e63946" stroke="#ffffff" stroke-width="2.5" />
<text x="614.0" y="793.5" font-size="16" font-weight="800" fill="#ffffff" text-anchor="middle" >4</text>
<text x="634.0" y="793.0" font-size="15" font-weight="400" fill="#1e2a4a" text-anchor="start" >Klik INSTALL, lalu tunggu (±2 GB)</text>
<text x="1178.0" y="836.0" font-size="12" font-weight="400" fill="#8a8f9c" text-anchor="end" >Ilustrasi (digambar ulang, bukan tangkapan layar) · Arduino IDE 2.3.10 · Kurikulum Fullstack IoT Developer · CC BY 4.0</text>
</svg>
